<svg width="147" height="139" viewBox="0 0 147 139" fill="none" xmlns="http://www.w3.org/2000/svg">
<g opacity="0.2">
<path fill-rule="evenodd" clip-rule="evenodd" d="M104.9 47.6701C103.777 41.8375 105.256 37.6889 102.997 37.5793C100.313 37.4424 99.8205 41.4541 99.1769 44.521C98.6293 47.1636 95.2748 46.4516 96.0005 43.2614C96.7261 40.0576 97.5066 33.8963 93.4538 28.1321C87.2515 19.2872 82.7742 19.4104 78.1875 11.7293C76.4213 8.75823 76.9005 3.45954 75.6409 3.528C74.3812 3.61015 71.5196 6.5676 73.2037 15.4535C75.2575 26.2152 72.4507 30.7609 71.191 31.2812C69.9314 31.7878 68.0146 31.4317 68.2884 28.666C68.5622 25.9003 68.0146 20.0813 66.0841 19.9307C64.1672 19.7937 64.4274 22.5732 62.9213 26.2289C59.4162 34.6904 50.5165 37.4287 49.5855 51.5859C48.7913 63.6347 59.1834 77.7782 76.2707 77.9425C103.504 78.2027 106.858 57.9115 104.886 47.6701H104.9ZM75.1753 69.7412C70.8761 69.8233 65.3857 65.0313 66.2072 59.9654C66.8371 56.1317 68.1651 55.1732 69.7945 52.8593C71.4238 50.5454 72.5328 48.1357 73.3817 43.0834C73.9431 39.729 77.4892 44.8634 76.9689 50.1894C76.4486 55.5155 79.2692 52.9277 80.5562 51.0794C81.7337 49.3816 81.9801 45.589 83.2535 45.7396C87.3884 46.2736 95.4528 69.3852 75.1753 69.7412Z" fill="white"/>
<path fill-rule="evenodd" clip-rule="evenodd" d="M32.6375 1.1193L21.424 12.3328C19.9316 13.8252 19.9316 16.2487 21.424 17.7411L40.4281 36.7452C41.9205 38.2376 44.3439 38.2376 45.8363 36.7452L57.0498 25.5317C58.5422 24.0393 58.5422 21.6158 57.0498 20.1234L38.0457 1.1193C36.5533 -0.3731 34.1299 -0.3731 32.6375 1.1193Z" fill="white"/>
<path fill-rule="evenodd" clip-rule="evenodd" d="M33.6509 24.5176L30.9398 21.8066C29.4475 20.3142 26.271 19.5475 24.7786 21.0536C24.7786 21.0536 26.7639 23.9562 22.807 27.9132C22.5194 28.2007 22.3825 28.3376 22.3141 28.406C22.273 28.4471 22.2593 28.4609 22.2593 28.4609C22.1909 28.5293 22.0676 28.6525 21.7938 28.9263C18.8911 31.829 16.4951 30.8295 13.6609 33.6774C7.12993 40.2084 1.1193 46.219 1.1193 46.219C-0.3731 47.7114 -0.3731 50.1486 1.1193 51.641L3.83024 54.3519L33.6509 24.5313V24.5176Z" fill="white"/>
<path fill-rule="evenodd" clip-rule="evenodd" d="M33.6507 24.5176L36.3617 27.2285C37.8541 28.7209 38.6619 31.9384 37.1695 33.4445C37.1695 33.4445 34.212 31.4045 30.2551 35.3614C29.9676 35.6489 29.8307 35.7858 29.7623 35.8543C29.7212 35.8954 29.7075 35.9091 29.7075 35.9091C29.6391 35.9776 29.5158 36.1007 29.242 36.3746C26.3393 39.2772 27.3389 41.6733 24.491 44.5075C17.96 51.0384 11.9493 57.0491 11.9493 57.0491C10.4569 58.5415 8.01982 58.5415 6.52743 57.0491L3.81641 54.3381L33.637 24.5176H33.6507Z" fill="white"/>
<path fill-rule="evenodd" clip-rule="evenodd" d="M40.9881 47.4253L45.0956 46.549C45.2599 46.5079 45.2599 46.2889 45.0956 46.2478L40.9607 45.3168C40.9607 45.3168 40.8512 45.262 40.8375 45.1935L39.9749 41.1681C39.9338 41.0038 39.7147 41.0038 39.6737 41.1681L38.77 45.1798C38.77 45.1798 38.7152 45.2894 38.6468 45.3031L34.4982 46.1931C34.3339 46.2341 34.3339 46.4532 34.4982 46.4943L38.592 47.4116C38.592 47.4116 38.7016 47.4664 38.7153 47.5348L39.6189 51.7655C39.66 51.9298 39.879 51.9298 39.9201 51.7655L40.8648 47.5348C40.8648 47.5348 40.9196 47.4253 40.9881 47.4116V47.4253Z" fill="white"/>
<path fill-rule="evenodd" clip-rule="evenodd" d="M110.721 24.0811L117.06 23.2048L110.721 22.3149L112.884 19.467L110.023 21.6166L109.146 15.2773L108.256 21.6166L105.408 19.467L107.558 22.3149L101.219 23.2048L107.558 24.0811L105.408 26.9426L108.256 24.7794L109.146 31.1187L110.023 24.7794L112.884 26.9426L110.721 24.0811Z" fill="white"/>
<path fill-rule="evenodd" clip-rule="evenodd" d="M121.713 27.7207L112.074 51.1062H136.925L122.672 47.5053L136.226 34.8404L120.139 41.481L121.713 27.7207Z" fill="white"/>
<path fill-rule="evenodd" clip-rule="evenodd" d="M132.546 15.2363L126.33 25.3408H128.822L125.152 35.0756L134.381 22.9311H130.793L132.546 15.2363Z" fill="white"/>
<path fill-rule="evenodd" clip-rule="evenodd" d="M134.23 44.6873L146.17 39.4297V43.3318L134.23 44.6873Z" fill="white"/>
<path fill-rule="evenodd" clip-rule="evenodd" d="M117.241 85.4456C117.241 85.4456 127.305 76.5323 132.453 72.4111C137.341 68.4953 137.135 63.6347 137.135 63.6347V59.7874C137.135 56.3097 133.931 56.5835 133.931 56.5835H113.407C110.71 56.4602 110.204 58.514 110.204 58.514C110.204 58.514 107.438 71.2336 95.4165 79.1885C93.7872 80.2702 87.9955 83.5425 77.494 83.5425C66.9924 83.5425 61.2009 80.2702 59.5715 79.1885C47.5365 71.2473 44.7845 58.514 44.7845 58.514C44.7845 58.514 44.2779 56.4602 41.5806 56.5835H21.0567C21.0567 56.5835 17.8528 56.3097 17.8528 59.7874V63.6347C17.8528 63.6347 17.6475 68.6185 22.5354 72.5344C27.6835 76.6556 37.7332 85.4456 37.7332 85.4456C37.7332 85.4456 44.7845 91.3194 44.7845 100.205C44.7845 109.817 37.7332 116.238 37.7332 116.238L31.9553 122.016C31.9553 122.016 29.9974 123.865 25.5339 127.794C20.7281 132.025 21.1251 132.764 21.1251 134.845C21.1251 135.913 21.5222 136.639 22.0014 137.132C22.6039 137.748 23.4665 138.049 24.329 138.049H51.8494C51.8494 138.049 54.5193 138.419 56.9838 136.119C59.2703 133.983 64.4732 128.643 65.2262 127.876C65.281 127.822 65.3221 127.767 65.3768 127.712C65.9245 127.055 70.3743 122.016 77.5077 122.016C84.6411 122.016 89.0772 127.055 89.6385 127.712C89.6933 127.767 89.7344 127.822 89.7892 127.876C90.5423 128.643 95.7587 133.997 98.0316 136.119C100.496 138.419 103.166 138.049 103.166 138.049H130.686C131.549 138.049 132.398 137.748 133.014 137.132C133.493 136.639 133.89 135.913 133.89 134.845C133.89 132.751 134.274 132.011 129.482 127.794C125.032 123.878 123.06 122.016 123.06 122.016L117.282 116.238C117.282 116.238 110.231 109.803 110.231 100.205C110.231 91.3194 117.282 85.4456 117.282 85.4456H117.241Z" fill="white"/>
</g>
</svg>
